<svg xmlns="http://www.w3.org/2000/svg" width="75.082" height="65.111" viewBox="0 0 75.082 65.111">
  <g id="heart_beat" data-name="heart beat" transform="translate(0 0)">
    <path id="Path_11535" data-name="Path 11535" d="M77.08,26.422a22.034,22.034,0,0,1-6.5,15.671L47.417,65.257a21.813,21.813,0,0,1-5.371,3.911h-.689a2.946,2.946,0,0,1-.689,0h0a2.946,2.946,0,0,1-.689,0h-.689a21.814,21.814,0,0,1-5.508-3.911L19.324,50.88a2.765,2.765,0,0,1,3.911-3.911L37.612,61.346a14.6,14.6,0,0,0,2.947,2.286,14.6,14.6,0,0,0,2.947-2.286L66.669,38.183A16.651,16.651,0,0,0,43.12,14.634l-.606.606a2.754,2.754,0,0,1-2.754.661h-.386l-.386-.275a3.36,3.36,0,0,1-.523-.331l-.606-.606A16.663,16.663,0,0,0,9.547,25.9a2.754,2.754,0,0,1-2.754,2.754h0A2.754,2.754,0,0,1,4.038,25.9,22.034,22.034,0,0,1,40.559,9.511,22.034,22.034,0,0,1,77.08,26.422ZM20.316,41.35l5.784-12.7,4.544,17.269a2.754,2.754,0,0,0,2.534,2.066h0a2.754,2.754,0,0,0,2.561-1.79L41.11,31.958l2.534,3.773a2.754,2.754,0,0,0,2.424,1.184H54.33a2.754,2.754,0,0,0,0-5.508H47.555l-4.71-7.023a2.76,2.76,0,0,0-4.875.551L33.784,36.117,29.542,19.7a2.828,2.828,0,0,0-5.288-.441L18.14,32.785a2.754,2.754,0,0,0-2.369-1.377H4.754a2.754,2.754,0,0,0,0,5.508h9.034l1.4,4.186a2.753,2.753,0,0,0,5.123.248Z" transform="translate(-2 -4.077)" fill="#0d1b3e"/>
  </g>
</svg>
