<svg xmlns="http://www.w3.org/2000/svg" width="65.733" height="65.733" viewBox="0 0 65.733 65.733">
  <g id="hospital" transform="translate(-2 -2)">
    <path id="Path_11536" data-name="Path 11536" d="M65.386,63.038H63.038V34.867a2.348,2.348,0,0,0-2.348-2.348H46.6V4.348A2.348,2.348,0,0,0,44.257,2H9.043A2.348,2.348,0,0,0,6.7,4.348V63.038H4.348a2.348,2.348,0,0,0,0,4.7H65.386a2.348,2.348,0,0,0,0-4.7ZM58.343,37.214V63.038H46.6V37.214ZM32.519,63.038H20.781V49.07H32.519Zm4.7,0V46.722a2.348,2.348,0,0,0-2.348-2.348H18.433a2.348,2.348,0,0,0-2.348,2.348V63.156h-4.7V6.7H41.91V63.038ZM26.65,23.129A2.348,2.348,0,0,1,24.3,20.781V18.433H21.955a2.348,2.348,0,0,1,0-4.7H24.3V11.39a2.348,2.348,0,0,1,4.7,0v2.348h2.348a2.348,2.348,0,0,1,0,4.7H29v2.348A2.348,2.348,0,0,1,26.65,23.129Zm-1.174,7.043a2.348,2.348,0,0,1-2.348,2.348h-4.7a2.348,2.348,0,1,1,0-4.7h4.7A2.348,2.348,0,0,1,25.476,30.171Zm11.738,0a2.348,2.348,0,0,1-2.348,2.348h-4.7a2.348,2.348,0,0,1,0-4.7h4.7A2.348,2.348,0,0,1,37.214,30.171ZM25.476,37.214a2.348,2.348,0,0,1-2.348,2.348h-4.7a2.348,2.348,0,0,1,0-4.7h4.7A2.348,2.348,0,0,1,25.476,37.214Zm11.738,0a2.348,2.348,0,0,1-2.348,2.348h-4.7a2.348,2.348,0,0,1,0-4.7h4.7A2.348,2.348,0,0,1,37.214,37.214Z" transform="translate(0 0)" fill="#0e1c3f"/>
  </g>
</svg>
