<svg xmlns="http://www.w3.org/2000/svg" width="58.682" height="57.734" viewBox="0 0 58.682 57.734">
  <g id="blood" transform="translate(-2.018 -3.999)">
    <path id="Path_11533" data-name="Path 11533" d="M25.515,5.133A2.225,2.225,0,0,0,21.718,5L3.821,32.423l-.133.244A19.984,19.984,0,0,0,5.4,51.785a20.162,20.162,0,0,0,16.964,9.948,20.184,20.184,0,0,0,16.987-9.948A19.984,19.984,0,0,0,40.97,32.556Zm10.059,44.41a15.765,15.765,0,0,1-13.212,7.749A15.81,15.81,0,0,1,9.15,49.432a15.543,15.543,0,0,1-1.532-14.7L23.45,10.485,37.04,34.621a15.543,15.543,0,0,1-1.466,14.811ZM60,23.163l-.111-.178L54.337,14.1a2.22,2.22,0,0,0-3.775,0l-5.529,8.882a1.244,1.244,0,0,0-.111.178,8.238,8.238,0,1,0,15.077,0ZM55.558,28.6a3.508,3.508,0,0,1-6.24,0,3.753,3.753,0,0,1-.466-3.4l3.575-5.773,3.6,5.773a3.819,3.819,0,0,1-.489,3.22Z" transform="translate(0)" fill="#0e1c3f"/>
  </g>
</svg>
