<svg xmlns="http://www.w3.org/2000/svg" width="53.61" height="57.734" viewBox="0 0 53.61 57.734">
  <g id="doctor" transform="translate(-3 -2)">
    <path id="Path_11534" data-name="Path 11534" d="M40.4,26.743a13.3,13.3,0,0,0,3.835-9.279V7.01A5.01,5.01,0,0,0,39.228,2H22.444a5.01,5.01,0,0,0-5.01,5.01V17.464a13.382,13.382,0,0,0,3.753,9.279H21a18,18,0,0,0-18,18v7.712a7.279,7.279,0,0,0,7.279,7.279H49.331a7.279,7.279,0,0,0,7.279-7.279V44.744a18.021,18.021,0,0,0-16.207-18ZM22.444,6.124H39.228a.887.887,0,0,1,.887.887v7.361H21.557V7.01a.887.887,0,0,1,.887-.887ZM21.66,18.5H40.115a9.237,9.237,0,0,1-18.351,0ZM19.5,41.177a2.062,2.062,0,1,1-2.062,2.062A2.062,2.062,0,0,1,19.5,41.177ZM52.486,52.455a3.175,3.175,0,0,1-3.155,3.155H10.279a3.175,3.175,0,0,1-3.155-3.155V44.744a13.918,13.918,0,0,1,10.31-13.4v6.083a6.186,6.186,0,1,0,4.124,0V30.867h16.5v6.557a6.186,6.186,0,0,0-4.124,5.815v4.124a2.062,2.062,0,0,0,4.124,0V43.238a2.062,2.062,0,0,1,4.124,0v4.124a2.062,2.062,0,1,0,4.124,0V43.238a6.186,6.186,0,0,0-4.124-5.815V31.341a13.918,13.918,0,0,1,10.31,13.4ZM25.681,10.248a2.062,2.062,0,0,1,2.062-2.062h6.186a2.062,2.062,0,0,1,0,4.124H27.743A2.062,2.062,0,0,1,25.681,10.248Z" fill="#0e1c3f"/>
  </g>
</svg>
